<svg xmlns="http://www.w3.org/2000/svg" viewBox="0 0 51 50.11"><title>1</title><g id="Слой_2" data-name="Слой 2"><g id="Слой_1-2" data-name="Слой 1"><rect x="0.5" y="0.05" width="50" height="50" fill="none"/><path d="M3,39.2v9.24a1.11,1.11,0,0,0,1.18,1.17H7.81a1.05,1.05,0,0,0,1.06-1.05v-6Z" fill="#fff" stroke="#333" stroke-linecap="round" stroke-linejoin="round" fill-rule="evenodd"/><path d="M50.38,6.35H15a3.7,3.7,0,0,0-3.42,2.34l-4,10.52L3.92,23.88A4.48,4.48,0,0,0,3,26.69H3V39.2a3.51,3.51,0,0,0,3.54,3.39h44V6.35Z" fill="#ffdb4d" fill-rule="evenodd"/><path d="M45.67,40.37H19.49a1.26,1.26,0,0,1-1.18-1.17V35.58H46.84V39.2a1.37,1.37,0,0,1-1.18,1.17Z" fill="#fff" stroke="#333" stroke-linecap="round" stroke-linejoin="round" fill-rule="evenodd"/><path d="M10.76,25.75a3.45,3.45,0,0,1,0,6.9h-.24a3.45,3.45,0,1,1,0-6.9Z" fill="#fff" stroke="#333" stroke-linecap="round" stroke-linejoin="round" fill-rule="evenodd"/><path d="M11.35,35.58a1.91,1.91,0,0,1,1.77,1.87h0a1.91,1.91,0,0,1-1.77,1.87h-.12a1.81,1.81,0,0,1-1.77-1.75v-.23a1.81,1.81,0,0,1,1.77-1.75Z" fill="#fff" stroke="#333" stroke-linecap="round" stroke-linejoin="round" fill-rule="evenodd"/><path d="M20.43,32.18H44.84A1.35,1.35,0,0,0,46,31.25L46.61,29v-.23a1.18,1.18,0,0,0-1.18-1.17H19.84a1.18,1.18,0,0,0-1.18,1.17V29l.59,2.22a1.35,1.35,0,0,0,1.18.94Z" fill="#fff" stroke="#333" stroke-linecap="round" stroke-linejoin="round" fill-rule="evenodd"/><path d="M50.38,20.38H10.05L13.83,9.5A1.17,1.17,0,0,1,15,8.68H50.38Z" fill="#fff" fill-rule="evenodd"/><path d="M3,14.53H4.16a2.34,2.34,0,1,1,0,4.68H3A2.54,2.54,0,0,1,.5,17h0A2.41,2.41,0,0,1,3,14.53Z" fill="#fff" stroke="#333" stroke-linecap="round" stroke-linejoin="round" fill-rule="evenodd"/><line x1="2.98" y1="19.21" x2="7.58" y2="19.21" fill="none" stroke="#333" stroke-linecap="round" stroke-linejoin="round"/><line x1="8.52" y1="16.99" x2="6.51" y2="16.99" fill="none" stroke="#333" stroke-linecap="round" stroke-linejoin="round"/><path d="M50.38,20.38H10.05L13.83,9.5A1.17,1.17,0,0,1,15,8.68H50.38" fill="none" stroke="#333" stroke-linecap="round" stroke-linejoin="round"/><path d="M50.38,6.35H15a3.7,3.7,0,0,0-3.42,2.34l-4,10.52L3.92,23.88A4.48,4.48,0,0,0,3,26.69H3V39.2a3.51,3.51,0,0,0,3.54,3.39h44" fill="none" stroke="#333" stroke-linecap="round" stroke-linejoin="round"/><path d="M40.83,6.35l-.71-3.86a2.38,2.38,0,0,0-2.24-2H27.39a2.38,2.38,0,0,0-2.24,2l-.71,3.86Z" fill="#fff" stroke="#333" stroke-linecap="round" stroke-linejoin="round" fill-rule="evenodd"/></g></g></svg>