<svg xmlns="http://www.w3.org/2000/svg" viewBox="0 0 51 50.57"><title>2</title><g id="Слой_2" data-name="Слой 2"><g id="Слой_1-2" data-name="Слой 1"><rect x="0.5" y="0.5" width="50" height="50" fill="none"/><path d="M8,30.2H47.91a2.51,2.51,0,0,0,2.59-2.46V3.07A2.61,2.61,0,0,0,47.91.5H8A2.51,2.51,0,0,0,5.57,3.07V27.74A2.41,2.41,0,0,0,8,30.2Z" fill="#ffdb4d" stroke="#333" stroke-linejoin="round" fill-rule="evenodd"/><path d="M10.52,22.83h15a7.49,7.49,0,0,0-15,0Z" fill="#fff" stroke="#333" stroke-linejoin="round" fill-rule="evenodd"/><path d="M21.73,11.72a3.71,3.71,0,1,0-7.43,0,3.72,3.72,0,0,0,7.43,0Z" fill="#fff" stroke="#333" stroke-linejoin="round" fill-rule="evenodd"/><line x1="30.45" y1="7.98" x2="45.43" y2="7.98" fill="none" stroke="#333" stroke-linecap="round" stroke-linejoin="round"/><line x1="30.45" y1="15.35" x2="45.43" y2="15.35" fill="none" stroke="#333" stroke-linecap="round" stroke-linejoin="round"/><line x1="30.45" y1="22.83" x2="45.43" y2="22.83" fill="none" stroke="#333" stroke-linecap="round" stroke-linejoin="round"/><line x1="30.45" y1="11.72" x2="35.52" y2="11.72" fill="none" stroke="#333" stroke-linecap="round" stroke-linejoin="round"/><path d="M3.09,50.07H43a2.51,2.51,0,0,0,2.48-2.57V22.83A2.41,2.41,0,0,0,43,20.38H3.09A2.51,2.51,0,0,0,.5,22.83V47.5a2.61,2.61,0,0,0,2.59,2.57Z" fill="#ffdb4d" stroke="#333" stroke-linejoin="round" fill-rule="evenodd"/><path d="M5.57,42.59h15A7.47,7.47,0,0,0,13,35.22a7.37,7.37,0,0,0-7.43,7.37Z" fill="#fff" stroke="#333" stroke-linejoin="round" fill-rule="evenodd"/><path d="M16.77,31.48A3.71,3.71,0,0,0,13,27.74a3.78,3.78,0,0,0-3.77,3.74A3.86,3.86,0,0,0,13,35.22a3.78,3.78,0,0,0,3.77-3.74Z" fill="#fff" stroke="#333" stroke-linejoin="round" fill-rule="evenodd"/><line x1="25.5" y1="27.74" x2="40.48" y2="27.74" fill="none" stroke="#333" stroke-linecap="round" stroke-linejoin="round"/><line x1="25.5" y1="35.22" x2="40.48" y2="35.22" fill="none" stroke="#333" stroke-linecap="round" stroke-linejoin="round"/><line x1="25.5" y1="42.59" x2="40.48" y2="42.59" fill="none" stroke="#333" stroke-linecap="round" stroke-linejoin="round"/><line x1="25.5" y1="31.48" x2="30.45" y2="31.48" fill="none" stroke="#333" stroke-linecap="round" stroke-linejoin="round"/></g></g></svg>