<svg xmlns="http://www.w3.org/2000/svg" viewBox="0 0 51.43 51"><title>3</title><g id="Слой_2" data-name="Слой 2"><g id="Слой_1-2" data-name="Слой 1"><rect x="0.5" y="0.5" width="50" height="50" fill="none"/><path d="M3.12,35.52h45.2a2.63,2.63,0,0,0,2.62-2.59V3.09A2.63,2.63,0,0,0,48.31.5H3.12A2.63,2.63,0,0,0,.5,3.09V32.93a2.63,2.63,0,0,0,2.62,2.59Z" fill="#ffdb4d" stroke="#333" stroke-linejoin="round" fill-rule="evenodd"/><polygon points="13.11 45.43 8.11 50.5 8.11 26.91 18.1 26.91 18.1 50.5 13.11 45.43" fill="#fff" stroke="#333" stroke-linejoin="round" fill-rule="evenodd"/><path d="M13.11,18A7.53,7.53,0,0,0,5.61,25.5a7.43,7.43,0,0,0,7.49,7.43,7.53,7.53,0,0,0,7.61-7.43A7.63,7.63,0,0,0,13.11,18Z" fill="#fff" stroke="#333" stroke-linejoin="round" fill-rule="evenodd"/><path d="M13.11,20.55a5,5,0,1,0,0,9.91,5.11,5.11,0,0,0,5.11-5,5.11,5.11,0,0,0-5.11-5Z" fill="#fff" stroke="#333" stroke-linejoin="round" fill-rule="evenodd"/><path d="M30.71,25.5H45.82a7.43,7.43,0,0,0-7.49-7.43,7.53,7.53,0,0,0-7.61,7.43Z" fill="#fff" stroke="#333" stroke-linejoin="round" fill-rule="evenodd"/><path d="M42.13,14.3a3.82,3.82,0,0,0-3.81-3.77,3.72,3.72,0,1,0,0,7.43,3.79,3.79,0,0,0,3.81-3.66Z" fill="#fff" stroke="#333" stroke-linejoin="round" fill-rule="evenodd"/></g></g></svg>