<svg xmlns="http://www.w3.org/2000/svg" viewBox="0 0 51 50.5"><title>4</title><g id="Слой_2" data-name="Слой 2"><g id="Слой_1-2" data-name="Слой 1"><rect x="0.5" y="0.5" width="50" height="50" fill="none"/><path d="M30.41,50h10c2.71,0,4.36-2.33,4.95-5L50.42,22.8c.59-2.68-2.24-5-5.06-5h-15V5.52a5,5,0,0,0-4.95-5H20.52V12.87a10,10,0,0,1-10,9.92V45a5,5,0,0,0,4.95,5Z" fill="#fff" stroke="#333" stroke-linejoin="round" fill-rule="evenodd"/><path d="M.5,50H8a2.48,2.48,0,0,0,2.47-2.45V20.34A2.58,2.58,0,0,0,8,17.78H.5Z" fill="#ffdb4d" stroke="#333" stroke-linejoin="round" fill-rule="evenodd"/><line x1="30.41" y1="17.78" x2="24.87" y2="17.78" fill="#fff176" stroke="#333" stroke-linecap="round" stroke-linejoin="round"/></g></g></svg>