<svg xmlns="http://www.w3.org/2000/svg" viewBox="0 0 51 50.5"><title>5</title><g id="Слой_2" data-name="Слой 2"><g id="Режим_изоляции" data-name="Режим изоляции"><rect x="0.5" y="0.5" width="50" height="50" fill="none"/><path d="M18.3,49.72H47.92a2.57,2.57,0,0,0,2.58-2.44V3.05A2.59,2.59,0,0,0,47.92.5H18.3a2.59,2.59,0,0,0-2.58,2.55V47.29a2.57,2.57,0,0,0,2.58,2.44Z" fill="#ffdb4d" stroke="#333" stroke-linejoin="round" fill-rule="evenodd"/><rect x="18.18" y="5.49" width="29.74" height="39.24" fill="#fff" stroke="#333" stroke-linejoin="round"/><path d="M3.43,49.72H17.48a2.89,2.89,0,0,0,2.93-2.9V18.15a2.89,2.89,0,0,0-2.93-2.9H3.43A2.89,2.89,0,0,0,.5,18.15V46.82a2.89,2.89,0,0,0,2.93,2.9Z" fill="#ffdb4d" stroke="#333" stroke-linejoin="round" fill-rule="evenodd"/><rect x="2.96" y="20.24" width="14.87" height="24.5" fill="#fff" stroke="#333" stroke-linejoin="round"/><path d="M34.81,27.78a2.42,2.42,0,0,0-3.4,0" fill="#fff" stroke="#333" stroke-linecap="round" stroke-linejoin="round" fill-rule="evenodd"/><path d="M36.45,26.16a4.69,4.69,0,0,0-6.67,0" fill="#fff" stroke="#333" stroke-linecap="round" stroke-linejoin="round" fill-rule="evenodd"/><path d="M38.09,24.53a7,7,0,0,0-10,0" fill="#fff" stroke="#333" stroke-linecap="round" stroke-linejoin="round" fill-rule="evenodd"/></g></g></svg>