<svg xmlns="http://www.w3.org/2000/svg" viewBox="0 0 51.43 51"><title>1 (1)</title><g id="Слой_2" data-name="Слой 2"><g id="Слой_1-2" data-name="Слой 1"><rect x="0.93" y="0.5" width="50" height="50" fill="none"/><path d="M45.82.5a5,5,0,1,0,5.11,5.07A5,5,0,0,0,45.82.5Z" fill="#ffdb4d" stroke="#333" stroke-linejoin="round" fill-rule="evenodd"/><path d="M25.72,20.55a5,5,0,1,0,5,5,5,5,0,0,0-5-5Z" fill="#ffdb4d" stroke="#333" stroke-linejoin="round" fill-rule="evenodd"/><path d="M5.61,40.48a5,5,0,1,0,5,5,5,5,0,0,0-5-5Z" fill="#ffdb4d" stroke="#333" stroke-linejoin="round" fill-rule="evenodd"/><path d="M5.61,40.48v-10a5,5,0,0,1,5-5H20.72" fill="none" stroke="#333" stroke-linejoin="round"/><path d="M30.71,25.5H40.82a5,5,0,0,0,5-5v-10" fill="none" stroke="#333" stroke-linejoin="round"/><path d="M25.72,23a2.48,2.48,0,1,0,2.5,2.48A2.43,2.43,0,0,0,25.72,23Z" fill="#fff" stroke="#333" stroke-linejoin="round" fill-rule="evenodd"/></g></g></svg>