<svg xmlns="http://www.w3.org/2000/svg" viewBox="0 0 51.31 51"><title>2 (1)</title><g id="Слой_2" data-name="Слой 2"><g id="Слой_1-2" data-name="Слой 1"><rect x="0.81" y="0.5" width="50" height="50" fill="none"/><path d="M5.5,50.5H45.82a5,5,0,0,0,5-5.07v-30H.5v30a5,5,0,0,0,5,5.07Z" fill="#fff" stroke="#333" stroke-linejoin="round" fill-rule="evenodd"/><path d="M.5,15.48H50.81v-5a5,5,0,0,0-5-5H5.5a5,5,0,0,0-5,5Z" fill="#ffdb4d" stroke="#333" stroke-linejoin="round" fill-rule="evenodd"/><path d="M8.11,10.52h0A1.3,1.3,0,0,0,9.3,9.23V1.8A1.3,1.3,0,0,0,8.11.5h0A1.31,1.31,0,0,0,6.8,1.8V9.23a1.31,1.31,0,0,0,1.31,1.3Z" fill="#fff" stroke="#333" stroke-linejoin="round" fill-rule="evenodd"/><path d="M25.72,10.52h0a1.22,1.22,0,0,0,1.19-1.3V1.8A1.22,1.22,0,0,0,25.72.5h0a1.31,1.31,0,0,0-1.31,1.3V9.23a1.31,1.31,0,0,0,1.31,1.3Z" fill="#fff" stroke="#333" stroke-linejoin="round" fill-rule="evenodd"/><path d="M43.32,10.52h0a1.31,1.31,0,0,0,1.31-1.3V1.8A1.31,1.31,0,0,0,43.32.5h0A1.31,1.31,0,0,0,42,1.8V9.23a1.31,1.31,0,0,0,1.31,1.3Z" fill="#fff" stroke="#333" stroke-linejoin="round" fill-rule="evenodd"/><line x1="5.5" y1="23.02" x2="13.11" y2="23.02" fill="#fff176" stroke="#333" stroke-linecap="round" stroke-linejoin="round"/><line x1="21.91" y1="23.02" x2="29.52" y2="23.02" fill="#fff176" stroke="#333" stroke-linecap="round" stroke-linejoin="round"/><line x1="38.32" y1="23.02" x2="45.82" y2="23.02" fill="#fff176" stroke="#333" stroke-linecap="round" stroke-linejoin="round"/><line x1="5.5" y1="33.05" x2="13.11" y2="33.05" fill="#fff176" stroke="#333" stroke-linecap="round" stroke-linejoin="round"/><line x1="21.91" y1="33.05" x2="29.52" y2="33.05" fill="#fff176" stroke="#333" stroke-linecap="round" stroke-linejoin="round"/><line x1="38.32" y1="33.05" x2="45.82" y2="33.05" fill="#fff176" stroke="#333" stroke-linecap="round" stroke-linejoin="round"/><line x1="5.5" y1="42.95" x2="13.11" y2="42.95" fill="#fff176" stroke="#333" stroke-linecap="round" stroke-linejoin="round"/><line x1="21.91" y1="42.95" x2="29.52" y2="42.95" fill="#fff176" stroke="#333" stroke-linecap="round" stroke-linejoin="round"/></g></g></svg>