<svg xmlns="http://www.w3.org/2000/svg" viewBox="0 0 51.31 51"><title>3(1)</title><g id="Слой_2" data-name="Слой 2"><g id="Слой_1-2" data-name="Слой 1"><rect x="0.81" y="0.5" width="50" height="50" fill="none"/><path d="M.5,13H50.81V45.43a5,5,0,0,1-5,5.07H5.5a5,5,0,0,1-5-5.07Z" fill="#fff" stroke="#333" stroke-linejoin="round" fill-rule="evenodd"/><path d="M.5,13H50.81V5.57a5,5,0,0,0-5-5.07H5.5a5,5,0,0,0-5,5.07Z" fill="#ffdb4d" stroke="#333" stroke-linejoin="round" fill-rule="evenodd"/><path d="M14.42,24.2H44.63A1.19,1.19,0,0,0,45.82,23h0a1.3,1.3,0,0,0-1.19-1.3H14.42A1.31,1.31,0,0,0,13.11,23h0a1.22,1.22,0,0,0,1.31,1.18Z" fill="#fff" stroke="#333" stroke-linejoin="round" fill-rule="evenodd"/><path d="M6.8,34.23H32a1.22,1.22,0,0,0,1.19-1.3h0A1.19,1.19,0,0,0,32,31.75H6.8A1.3,1.3,0,0,0,5.5,32.93h0a1.31,1.31,0,0,0,1.31,1.3Z" fill="#fff" stroke="#333" stroke-linejoin="round" fill-rule="evenodd"/><path d="M34.52,34.23H44.63a1.3,1.3,0,0,0,1.19-1.3h0a1.27,1.27,0,0,0-1.19-1.18H34.52a1.3,1.3,0,0,0-1.31,1.18h0a1.31,1.31,0,0,0,1.31,1.3Z" fill="#fff" stroke="#333" stroke-linejoin="round" fill-rule="evenodd"/><path d="M33.21,35.52h0a2.53,2.53,0,0,0,2.5-2.59h0a2.5,2.5,0,0,0-2.5-2.48h0a2.58,2.58,0,0,0-2.5,2.48h0a2.61,2.61,0,0,0,2.5,2.59Z" fill="#ffdb4d" stroke="#333" stroke-linejoin="round" fill-rule="evenodd"/><path d="M6.8,24.2h5A1.22,1.22,0,0,0,13.11,23h0a1.31,1.31,0,0,0-1.31-1.3h-5A1.31,1.31,0,0,0,5.5,23h0A1.22,1.22,0,0,0,6.8,24.2Z" fill="#fff" stroke="#333" stroke-linejoin="round" fill-rule="evenodd"/><path d="M13.11,25.5h0A2.5,2.5,0,0,0,15.61,23h0a2.43,2.43,0,0,0-2.5-2.48h0A2.43,2.43,0,0,0,10.61,23h0a2.5,2.5,0,0,0,2.5,2.48Z" fill="#ffdb4d" stroke="#333" stroke-linejoin="round" fill-rule="evenodd"/><path d="M6.8,44.25H16.91A1.22,1.22,0,0,0,18.1,43h0a1.12,1.12,0,0,0-1.19-1.18H6.8A1.22,1.22,0,0,0,5.5,43h0a1.31,1.31,0,0,0,1.31,1.3Z" fill="#fff" stroke="#333" stroke-linejoin="round" fill-rule="evenodd"/><path d="M19.41,44.25H44.63A1.3,1.3,0,0,0,45.82,43h0a1.19,1.19,0,0,0-1.19-1.18H19.41A1.22,1.22,0,0,0,18.1,43h0a1.31,1.31,0,0,0,1.31,1.3Z" fill="#fff" stroke="#333" stroke-linejoin="round" fill-rule="evenodd"/><path d="M18.1,45.43h0A2.43,2.43,0,0,0,20.6,43h0a2.43,2.43,0,0,0-2.5-2.48h0A2.5,2.5,0,0,0,15.61,43h0a2.5,2.5,0,0,0,2.5,2.48Z" fill="#ffdb4d" stroke="#333" stroke-linejoin="round" fill-rule="evenodd"/></g></g></svg>