<svg xmlns="http://www.w3.org/2000/svg" viewBox="0 0 51.43 51"><title>1</title><g id="Слой_2" data-name="Слой 2"><g id="Слой_1-2" data-name="Слой 1"><path d="M28.21,45.43A22.6,22.6,0,0,0,50.93,23a22.7,22.7,0,0,0-44.6-5.78" fill="#fff" stroke="#333" stroke-linecap="round" stroke-linejoin="round" fill-rule="evenodd"/><path d="M28.33,40.48a17.45,17.45,0,1,0-17-22.05" fill="#fff" stroke="#333" stroke-linecap="round" stroke-linejoin="round" fill-rule="evenodd"/><path d="M3.12,50.5H15.61A2.61,2.61,0,0,0,18.22,48V23a2.53,2.53,0,0,0-2.62-2.48H3.12A2.53,2.53,0,0,0,.5,23V48A2.61,2.61,0,0,0,3.12,50.5Z" fill="#ffdb4d" stroke="#333" stroke-linecap="round" stroke-linejoin="round" fill-rule="evenodd"/><polyline points="28.21 10.88 28.21 23.02 34.99 29.75" fill="none" stroke="#333" stroke-linecap="round" stroke-linejoin="round"/><rect x="3.35" y="25.5" width="12.01" height="19.93" fill="#fff" stroke="#333" stroke-linecap="round" stroke-linejoin="round"/><rect x="0.72" y="0.5" width="50" height="50" fill="none"/></g></g></svg>