<svg xmlns="http://www.w3.org/2000/svg" viewBox="0 0 51.01 50.55"><title>2</title><g id="Слой_2" data-name="Слой 2"><g id="Слой_1-2" data-name="Слой 1"><path d="M32.91,38.94l.71.35A14.58,14.58,0,0,1,39.33,45c.71,1.65,1,3.66-1.07,4.72a2.94,2.94,0,0,1-4.16-1.53A.12.12,0,0,1,34,48c-2.26-2.59-6.54-4.36-9.87-3.3-7,2.24-16.77-.83-20.81-7.08C-2.3,29.16.91,18,9.36,12.53s20-3.66,25.57,4.83a18,18,0,0,1-1.31,20.87,3.15,3.15,0,0,1-.71.59v.12Zm-9.16-2.83a3.84,3.84,0,0,1,1.19-1.53,3,3,0,0,1-1.78-2.12,2.86,2.86,0,0,1,1.67-3.3,10,10,0,0,1,2.62-.35,10.9,10.9,0,0,0-2-5.66c-2.26-3.42-7.61-6.6-11.54-4s-3.81,8.49-1.55,12.15a9.19,9.19,0,0,0,5.35,4A2.85,2.85,0,0,1,21,33.52a3,3,0,0,1,2,1.77.12.12,0,0,1,.12.12,3.13,3.13,0,0,0,.59.71Z" fill="#fff" stroke="#252525" stroke-linecap="round" stroke-linejoin="round" fill-rule="evenodd"/><path d="M36.71,46.14a10.72,10.72,0,0,0-4.52-4.36,6.34,6.34,0,0,0-2-.94c-1.43-.35-2.74-.47-4.4-.83a8.65,8.65,0,0,1-3.57-1.53,16.08,16.08,0,0,1-1.43-1.42c0-.12-.48-.59-.36-.83a5.49,5.49,0,0,0,.24,2.59,13.59,13.59,0,0,1-10.82-6C6.38,27,7.57,20,12.21,16.77S24,15.95,27.79,21.49a12.57,12.57,0,0,1,2,11v.12a4.49,4.49,0,0,0-3.93-.71,5.08,5.08,0,0,1,3.69,1.42,1.21,1.21,0,0,1,.59.71c.12,0,.12.12.24.12a5.82,5.82,0,0,1,1,2.36A15,15,0,0,0,32.55,18.9c-4.64-7-14.27-8.73-21.65-4S1.15,29.16,5.67,36.11c3.81,5.78,12.49,7.43,17.48,5.9a13.08,13.08,0,0,1,13,4.13,7.22,7.22,0,0,1,.59.94s.12.24.24.12.12-.12-.24-1.06Zm-9.28-9.32h-.12c0-.12,0-.12-.12-.12a1.3,1.3,0,0,0-.59.12,1.23,1.23,0,0,0-.12,1.42c.24.12.36.35.59.35h0v.12h.12a.9.9,0,0,0,.59-.12c.48-.24.48-.83.12-1.3-.12-.24-.36-.47-.48-.47Zm2.62-1.18c-.36-.12-.36.35-.36.59.24.59.48,1.06.71,1.06s.36-.12.24-.71a2.08,2.08,0,0,0-.59-.94Z" fill="#333" fill-rule="evenodd"/><path d="M17,25.5H46.23a4.32,4.32,0,0,0,4.28-4.25V4.75A4.32,4.32,0,0,0,46.23.5H17a4.25,4.25,0,0,0-4.28,4.25V21.25A4.25,4.25,0,0,0,17,25.5Z" fill="#ffdb4d" stroke="#252525" stroke-linecap="round" stroke-linejoin="round" fill-rule="evenodd"/><rect x="12.69" y="5.57" width="37.82" height="4.95" fill="#fff" stroke="#252525" stroke-linecap="round" stroke-linejoin="round"/><line x1="14.47" y1="15.95" x2="48.73" y2="15.95" fill="none" stroke="#252525" stroke-linecap="round" stroke-linejoin="round"/><line x1="14.47" y1="18.78" x2="31.6" y2="18.78" fill="none" stroke="#252525" stroke-linecap="round" stroke-linejoin="round"/><rect x="0.5" y="0.5" width="50" height="50" fill="none"/></g></g></svg>