<svg xmlns="http://www.w3.org/2000/svg" viewBox="0 0 50.31 50"><title>3</title><g id="Слой_2" data-name="Слой 2"><g id="Слой_1-2" data-name="Слой 1"><path d="M5.59,5.54H5.47a4.81,4.81,0,0,0-1.78.35,4.9,4.9,0,0,0-1.55.94A4.94,4.94,0,0,0,1.07,8.49a4.93,4.93,0,0,0-.48,2.36,5.15,5.15,0,0,0,.71,2.95,4.75,4.75,0,0,0,1.78,1.65L0,22.29H2l3-6.37H6.42v6.37h1.9V5.54Z" fill="red"/><path d="M6.42,6.72h-1A3.5,3.5,0,0,0,4.4,7a4.18,4.18,0,0,0-1,.59,3.68,3.68,0,0,0-.59,1.18,7.08,7.08,0,0,0-.24,1.77,3.47,3.47,0,0,0,.24,1.65,3.68,3.68,0,0,0,.59,1.18,2.59,2.59,0,0,0,1,.59A3.32,3.32,0,0,0,5.47,14h1Z" fill="#fff"/><path d="M31.28,11.44c-.59,0-1,.35-1.19,1.06A10.16,10.16,0,0,0,29.62,15h3.09a5.69,5.69,0,0,0-.12-1.42,3.42,3.42,0,0,0-.24-1.06,1.91,1.91,0,0,0-.36-.71,1,1,0,0,0-.71-.35Zm-7.49.24h-2v.12a12.71,12.71,0,0,1-.12,2.12,14.15,14.15,0,0,1-.12,2.24,12.63,12.63,0,0,1-.36,2.24,7.11,7.11,0,0,1-.59,2.12h3.21Zm24,10.5a3.3,3.3,0,0,1-3-1.53A8,8,0,0,1,43.77,16,8,8,0,0,1,44,13.56a4.58,4.58,0,0,1,.83-1.89,2.78,2.78,0,0,1,1.31-1.3A4,4,0,0,1,47.93,10a4.1,4.1,0,0,1,1.31.12,3.57,3.57,0,0,1,1,.47l-.36,1.77a2.13,2.13,0,0,0-.83-.59,1.78,1.78,0,0,0-1.07-.24,1.92,1.92,0,0,0-1.67,1.06,7.81,7.81,0,0,0-.59,3.3,9.39,9.39,0,0,0,.48,3.54,1.92,1.92,0,0,0,1.67,1.18A3,3,0,0,0,49,20.4a5.18,5.18,0,0,0,.83-.47l.48,1.3a5.59,5.59,0,0,1-1.07.71,4.47,4.47,0,0,1-1.43.24ZM38.3,16v5.9H36.51V10.14H38.3v5.42l2.85-5.42h1.9l-3,5.54,3.45,6.25h-2Zm-21.17-5.9V21.93h-1.9V16.63H12.49v5.31H10.7V10.14h1.78v5.07h2.74V10.14ZM34.61,21.23a13,13,0,0,1-1.31.71,7.08,7.08,0,0,1-1.67.24,3.4,3.4,0,0,1-2.85-1.42,7,7,0,0,1-1.07-4.25,18.1,18.1,0,0,1,.12-2.59,7.9,7.9,0,0,1,.71-2,3.22,3.22,0,0,1,1.07-1.42A2.75,2.75,0,0,1,31.28,10a4.31,4.31,0,0,1,1.31.24,2.8,2.8,0,0,1,1.07.94A13.66,13.66,0,0,1,34.37,13a14.6,14.6,0,0,1,.24,2.48v1.06h-5a5.65,5.65,0,0,0,.59,3.07,1.68,1.68,0,0,0,1.67,1.06,2.41,2.41,0,0,0,1.31-.35,3.5,3.5,0,0,0,1-.47l.48,1.42Zm-8.09,3.07H24.86V21.93H19.74v2.36H18.08V20.52h.83a11.09,11.09,0,0,0,.59-2.12c.12-.71.24-1.53.36-2.36A17.27,17.27,0,0,0,20,13.56a16.47,16.47,0,0,0,.12-2.36V10.14h5.47V20.52h1v3.77Z"/><path d="M42.34,36a7.72,7.72,0,0,1,.12-1.65h-.12c-.12.24-.12.59-.24.83l-.36.71-3.93,8.37h-1V32.43h1.07v8.14c0,.59-.12,1.18-.12,1.65h.12a1.67,1.67,0,0,1,.24-.71c.12-.24.24-.59.36-.83l3.93-8.25h1V44.22H42.34V36Zm-10,7.55a2.26,2.26,0,0,0,1-.24,1.09,1.09,0,0,0,.71-.47,3.15,3.15,0,0,0,.71-.59l.36.94a3.15,3.15,0,0,1-.71.59,1.92,1.92,0,0,1-.83.47,4.26,4.26,0,0,1-1.19.24,3.21,3.21,0,0,1-2.85-1.65,9.32,9.32,0,0,1-1-4.48,9.5,9.5,0,0,1,1-4.6,3,3,0,0,1,2.85-1.53,3.29,3.29,0,0,1,1.55.24,6.53,6.53,0,0,1,1.07.83l-.36,1.18a3.6,3.6,0,0,0-1-.94,2.41,2.41,0,0,0-1.31-.35,1.93,1.93,0,0,0-2,1.3,8.76,8.76,0,0,0-.71,3.89,8.21,8.21,0,0,0,.71,3.77,2,2,0,0,0,2,1.42Zm-9.87.71H21.41V32.43h1.07V38l4-5.54h1.07l-3.93,5.42,4.16,6.37H26.64l-4.16-6.13Zm-4.4,0a.88.88,0,0,1-.12-.59c-.12-.35-.12-.71-.24-1.06a4.24,4.24,0,0,1-1,1.42,3.39,3.39,0,0,1-1.55.47,2.55,2.55,0,0,1-2-.94A3.85,3.85,0,0,1,12.49,41a4.39,4.39,0,0,1,1-2.95,4.48,4.48,0,0,1,3-.94h1.31V35.73a2.93,2.93,0,0,0-.48-2,1.71,1.71,0,0,0-1.55-.59,3.11,3.11,0,0,0-2.5,1.3L13,33.37A2.59,2.59,0,0,1,14,32.55a3.83,3.83,0,0,1,1.67-.35,3.08,3.08,0,0,1,2.38.83,3.77,3.77,0,0,1,.71,2.59V42a4.8,4.8,0,0,0,.12,1.3c0,.35.12.71.12.94Zm-2.62-.71a1.92,1.92,0,0,0,1.31-.59,4.62,4.62,0,0,0,1-1.65V38H16.41a2.92,2.92,0,0,0-2.14.71,3,3,0,0,0-.71,2.24,3.35,3.35,0,0,0,.48,2,2,2,0,0,0,1.43.59ZM9.28,28.42v15.8H8.09V28.42H4.76v-.94h7.85v.94Z"/><rect x="0.16" width="50" height="50" fill="none"/></g></g></svg>