<svg xmlns="http://www.w3.org/2000/svg" viewBox="0 0 51.43 51"><title>4</title><g id="Слой_2" data-name="Слой 2"><g id="Слой_1-2" data-name="Слой 1"><path d="M25,26.92a12,12,0,0,1-8.33,11.2,12.38,12.38,0,0,1-3.57.47A11.78,11.78,0,0,1,5.61,36L.5,36.94l2-4.72a11.31,11.31,0,0,1-1.31-5.31A11.69,11.69,0,0,1,9.78,15.59a11.11,11.11,0,0,1,2.85-.47h.48A11.81,11.81,0,0,1,24.88,25.5c0,.47.12.94.12,1.42Z" fill="#ffdb4d" stroke="#333" stroke-linejoin="round" fill-rule="evenodd"/><polygon points="18.7 45.31 20.01 48.02 30.59 40.59 27.98 38.71 18.7 45.31" fill="#fff" stroke="#333" stroke-linejoin="round" fill-rule="evenodd"/><polygon points="45.7 18.54 39.04 27.86 40.82 30.34 48.31 19.84 45.7 18.54" fill="#fff" stroke="#333" stroke-linejoin="round" fill-rule="evenodd"/><path d="M20,48l6.07,2.48a40.29,40.29,0,0,0,15.34-9.43,39.84,39.84,0,0,0,9.52-15.21l-2.62-6-7.49,10.5,2.5.71a32.19,32.19,0,0,1-5.11,6.84,32.94,32.94,0,0,1-6.9,5.19l-.71-2.48Z" fill="#ffdb4d" stroke="#333" stroke-linejoin="round" fill-rule="evenodd"/><path d="M11.8,12.29a11.69,11.69,0,0,0,8.33,11.2,11.3,11.3,0,0,0,3.57.59,11.87,11.87,0,0,0,7.49-2.71l5.11,1.06-2-4.72a12.17,12.17,0,0,0,1.31-5.42A11.94,11.94,0,0,0,27,1,15.11,15.11,0,0,0,23.69.5,11.88,11.88,0,0,0,11.8,12.29Z" fill="#fff" stroke="#333" stroke-linejoin="round" fill-rule="evenodd"/><line x1="16.44" y1="10.88" x2="31.54" y2="10.88" fill="#fff" stroke="#333" stroke-linecap="round" stroke-linejoin="round"/><line x1="16.44" y1="13.71" x2="24.05" y2="13.71" fill="#fff" stroke="#333" stroke-linecap="round" stroke-linejoin="round"/><line x1="5.14" y1="25.5" x2="20.24" y2="25.5" fill="none" stroke="#fff" stroke-linecap="round" stroke-linejoin="round"/><line x1="5.14" y1="28.33" x2="12.75" y2="28.33" fill="none" stroke="#fff" stroke-linecap="round" stroke-linejoin="round"/><rect x="0.5" y="0.5" width="50" height="50" fill="none"/></g></g></svg>