<svg width="700" height="550" viewBox="0 0 70 55" xmlns="http://www.w3.org/2000/svg">
    <title>Яндекс.Такси</title>
    <g fill="none" fill-rule="evenodd">
        <path
        	d="M7.323 14.314L3.455 23H.634l4.248-9.288a6.042 6.042 0 0 1-2.41-2.235c-.612-.983-.919-2.32-.919-4.01 0-1.183.175-2.224.523-3.122.35-.899.825-1.644 1.427-2.235A5.865 5.865 0 0 1 5.61.778 7.277 7.277 0 0 1 8.147.334h3.645V23h-2.44v-8.686h-2.03.001zM9.352 2.395h-1.3c-.486 0-.962.09-1.427.27-.465.18-.877.464-1.236.855-.36.391-.65.91-.872 1.554-.222.644-.333 1.442-.333 2.393 0 .909.1 1.67.302 2.282.2.613.475 1.11.824 1.49.348.38.76.65 1.236.809.486.16.994.24 1.506.237h1.3v-9.89z"
        	fill="#F00" />

        <path
        	d="M36.265 26.138h-2.22V23H27.2v3.138h-2.22v-5.167h.983c.36-.845.645-1.78.856-2.805.212-1.025.375-2.082.492-3.17.116-1.089.19-2.198.221-3.329.032-1.13.048-2.224.048-3.28V7.022h7.418V20.97h1.268v5.167l-.001.001zm10.746-4.216a6.035 6.035 0 0 1-1.743.951c-.656.233-1.385.349-2.188.349-1.648 0-2.948-.64-3.899-1.918-.95-1.279-1.426-3.154-1.426-5.627 0-1.289.09-2.472.27-3.55.179-1.078.464-2.013.855-2.806.391-.792.893-1.41 1.506-1.854.613-.444 1.342-.666 2.187-.666.655 0 1.258.132 1.807.397.55.264 1.014.692 1.395 1.283.38.592.676 1.358.887 2.299.212.94.317 2.087.317 3.44v1.362h-6.657c0 1.818.249 3.191.745 4.121.497.93 1.242 1.395 2.235 1.395.698 0 1.316-.122 1.855-.365.539-.243.966-.48 1.284-.713l.57 1.902zM23.553 7.023V23h-2.44v-7.164h-3.678V23h-2.473V7.023h2.473v6.784h3.677V7.023h2.441zm28.435 8.02V23h-2.473V7.023h2.473v7.386l3.836-7.386h2.504l-3.962 7.513L58.899 23h-2.695l-4.216-7.957zM64.7 23.222c-1.712 0-3.054-.682-4.026-2.045s-1.458-3.418-1.458-6.165c0-1.247.121-2.378.364-3.392.243-1.015.602-1.876 1.078-2.584a5.082 5.082 0 0 1 1.775-1.648c.708-.391 1.527-.587 2.457-.587.718 0 1.3.08 1.743.238.444.159.846.354 1.205.586l-.349 2.346c-.36-.31-.76-.571-1.188-.776a3.245 3.245 0 0 0-1.443-.333c-.887 0-1.616.496-2.187 1.49-.57.993-.856 2.504-.856 4.533 0 2.007.238 3.555.713 4.644.476 1.088 1.22 1.632 2.235 1.632.613 0 1.141-.1 1.585-.3a4.686 4.686 0 0 0 1.11-.682l.57 1.838c-.422.36-.898.65-1.426.872-.529.222-1.163.333-1.902.333zM32.556 9.02h-2.758v.286c0 .845-.016 1.77-.048 2.773a43.73 43.73 0 0 1-.206 3.06 36.122 36.122 0 0 1-.443 3.058c-.174.948-.44 1.877-.793 2.774h4.248V9.02zm10.017-.19c-.76 0-1.3.428-1.617 1.284-.317.856-.517 2.002-.602 3.44h4.09c0-.677-.032-1.306-.096-1.887a7.57 7.57 0 0 0-.3-1.506c-.138-.422-.328-.75-.571-.982a1.256 1.256 0 0 0-.904-.349z"
        	fill="#000" />
    </g>

        <path
    	transform="translate(7, 30)" 
    	d="M6.06 1.634V23H4.475V1.634H.005v-1.3h10.556v1.3H6.06zm8.274 20.478c.74 0 1.368-.306 1.886-.919.517-.613.924-1.352 1.22-2.219v-4.406h-1.712c-1.331 0-2.314.317-2.948.95-.634.635-.95 1.65-.95 3.044 0 1.141.226 2.018.68 2.631.455.613 1.063.92 1.824.92v-.001zm3.55.888c-.063-.211-.132-.48-.206-.808a9.666 9.666 0 0 1-.174-1.348c-.38.761-.856 1.363-1.427 1.807-.57.444-1.257.666-2.06.666-1.078 0-1.955-.407-2.632-1.22-.676-.814-1.014-1.95-1.014-3.408 0-1.712.454-3.006 1.363-3.883.909-.877 2.23-1.316 3.963-1.316h1.743v-1.997c0-1.226-.222-2.113-.666-2.663-.443-.55-1.11-.824-1.997-.824a4.072 4.072 0 0 0-3.36 1.743l-.412-1.426c.317-.423.798-.798 1.442-1.125.645-.328 1.422-.492 2.33-.492 1.332 0 2.351.375 3.06 1.126.707.75 1.061 1.917 1.061 3.502v8.718c0 .55.032 1.104.095 1.664.064.56.148.988.254 1.284h-1.363zm5.928 0h-1.49V7.023h1.49v7.513l5.357-7.513h1.458l-5.262 7.418L31.008 23h-1.649l-5.547-8.274V23zm13.155-.983c.508 0 .957-.084 1.348-.253.39-.17.723-.37.998-.603a3.5 3.5 0 0 0 .824-.856l.476 1.237c-.24.346-.542.647-.888.887-.296.233-.681.439-1.157.619-.475.18-1.02.269-1.632.269-1.607 0-2.848-.724-3.725-2.171-.877-1.448-1.316-3.482-1.316-6.103 0-2.641.434-4.691 1.3-6.15.866-1.458 2.124-2.187 3.772-2.187.825 0 1.522.143 2.093.428.57.285 1.035.64 1.394 1.062l-.412 1.585a5.7 5.7 0 0 0-1.3-1.268c-.507-.36-1.098-.539-1.775-.539-1.225 0-2.129.613-2.71 1.839s-.872 2.969-.872 5.23c0 2.198.285 3.91.856 5.136.57 1.225 1.48 1.838 2.726 1.838zm13.378-10.144a16.338 16.338 0 0 1 .127-2.187h-.096a7.95 7.95 0 0 1-.38 1.03c-.148.328-.306.671-.475 1.03L44.32 23h-1.267V7.023h1.395v11.095c.003.752-.04 1.503-.127 2.25h.095c.105-.358.232-.712.38-1.061s.307-.703.476-1.062l5.199-11.222h1.3V23h-1.427V11.873h.001z"
    	fill="#000"
    	fill-rule="evenodd" />
</svg>
